<svg class="main-svg" xmlns="http://www.w3.org/2000/svg" xmlns:xlink="http://www.w3.org/1999/xlink" width="700" height="500" viewBox="0 0 700 500"><rect x="0" y="0" width="700" height="500" style="fill: rgb(255, 255, 255); fill-opacity: 1;"/><defs id="defs-cda0ca"><g class="clips"><clipPath id="clipcda0caxyplot" class="plotclip"><rect width="547" height="435"/></clipPath><clipPath class="axesclip" id="clipcda0cax"><rect x="51" y="0" width="547" height="500"/></clipPath><clipPath class="axesclip" id="clipcda0cay"><rect x="0" y="22" width="700" height="435"/></clipPath><clipPath class="axesclip" id="clipcda0caxy"><rect x="51" y="22" width="547" height="435"/></clipPath></g><g class="gradients"><linearGradient x1="0" x2="0" y1="1" y2="0" id="gcda0ca-cbfc0c64"><stop offset="0%" stop-color="rgb(19, 43, 67)" stop-opacity="1"/><stop offset="5.26315789473684%" stop-color="rgb(22, 49, 75)" stop-opacity="1"/><stop offset="10.526315789473701%" stop-color="rgb(25, 55, 84)" stop-opacity="1"/><stop offset="15.7894736842105%" stop-color="rgb(29, 62, 92)" stop-opacity="1"/><stop offset="21.052631578947402%" stop-color="rgb(32, 68, 101)" stop-opacity="1"/><stop offset="26.315789473684198%" stop-color="rgb(35, 75, 110)" stop-opacity="1"/><stop offset="31.5789473684211%" stop-color="rgb(39, 82, 119)" stop-opacity="1"/><stop offset="36.8421052631579%" stop-color="rgb(42, 89, 128)" stop-opacity="1"/><stop offset="42.105263157894704%" stop-color="rgb(46, 96, 138)" stop-opacity="1"/><stop offset="47.3684210526316%" stop-color="rgb(49, 103, 147)" stop-opacity="1"/><stop offset="52.631578947368396%" stop-color="rgb(53, 110, 157)" stop-opacity="1"/><stop offset="57.894736842105296%" stop-color="rgb(56, 117, 166)" stop-opacity="1"/><stop offset="63.1578947368421%" stop-color="rgb(60, 124, 176)" stop-opacity="1"/><stop offset="68.421052631579%" stop-color="rgb(63, 131, 186)" stop-opacity="1"/><stop offset="73.6842105263158%" stop-color="rgb(67, 139, 196)" stop-opacity="1"/><stop offset="78.9473684210526%" stop-color="rgb(71, 146, 206)" stop-opacity="1"/><stop offset="84.21052631578951%" stop-color="rgb(75, 154, 216)" stop-opacity="1"/><stop offset="89.4736842105263%" stop-color="rgb(78, 162, 226)" stop-opacity="1"/><stop offset="94.7368421052632%" stop-color="rgb(82, 169, 237)" stop-opacity="1"/><stop offset="100%" stop-color="rgb(86, 177, 247)" stop-opacity="1"/></linearGradient></g></defs><g class="bglayer"><rect class="bg" x="51" y="22" width="547" height="435" style="fill: rgb(235, 235, 235); fill-opacity: 1; stroke-width: 0;"/></g><g class="layer-below"><g class="imagelayer"/><g class="shapelayer"/></g><g class="cartesianlayer"><g class="subplot xy"><g class="layer-subplot"><g class="shapelayer"/><g class="imagelayer"/></g><g class="gridlayer"><g class="x"><path class="xgrid crisp" transform="translate(175.32,0)" d="M0,22v435" style="stroke: rgb(255, 255, 255); stroke-opacity: 1; stroke-width: 0.664176px;"/><path class="xgrid crisp" transform="translate(374.23,0)" d="M0,22v435" style="stroke: rgb(255, 255, 255); stroke-opacity: 1; stroke-width: 0.664176px;"/><path class="xgrid crisp" transform="translate(573.14,0)" d="M0,22v435" style="stroke: rgb(255, 255, 255); stroke-opacity: 1; stroke-width: 0.664176px;"/></g><g class="y"><path class="ygrid crisp" transform="translate(0,437.23)" d="M51,0h547" style="stroke: rgb(255, 255, 255); stroke-opacity: 1; stroke-width: 0.664176px;"/><path class="ygrid crisp" transform="translate(0,305.41)" d="M51,0h547" style="stroke: rgb(255, 255, 255); stroke-opacity: 1; stroke-width: 0.664176px;"/><path class="ygrid crisp" transform="translate(0,173.59)" d="M51,0h547" style="stroke: rgb(255, 255, 255); stroke-opacity: 1; stroke-width: 0.664176px;"/><path class="ygrid crisp" transform="translate(0,41.769999999999996)" d="M51,0h547" style="stroke: rgb(255, 255, 255); stroke-opacity: 1; stroke-width: 0.664176px;"/></g></g><g class="zerolinelayer"/><path class="xlines-below"/><path class="ylines-below"/><g class="overlines-below"/><g class="xaxislayer-below"/><g class="yaxislayer-below"/><g class="overaxes-below"/><g class="plot" transform="translate(51, 22)" clip-path="url(#clipcda0caxyplot)"><g class="scatterlayer mlayer"><g class="trace scatter trace1832dc" style="stroke-miterlimit: 2; opacity: 1;"><g class="fills"><g><path class="js-fill" d="M87.88,415.23L78.5,411.23L75.09,409.47L65.05,402.72L60.94,399.25L53.3,391.26L50.28,387.27L44.96,378.72L43.11,375.28L38.4,363.3L37.22,359.3L34.89,347.32L34.34,343.33L33.64,331.34L33.69,327.35L34.91,313.61L35.2,311.37L37.52,299.39L38.61,295.39L44.43,279.41L44.96,278.33L49.98,268.76L50.75,267.43L56.29,259.44L59.61,255.45L67.48,247.46L70.07,245.23L80.12,237.9L84.16,235.48L91.68,231.48L95.19,229.78L110.25,224.07L112.28,223.49L125.32,220.19L129.34,219.5L140.39,218.04L145.41,217.73L160.48,217.98L165.51,218.45L185.6,221.52L190.62,222.38L200.67,223.54L203.85,223.49L205.69,223.46L210.71,222.47L216.2,219.5L219.93,215.5L222.29,211.51L224.01,207.51L226.35,199.52L227.07,195.53L228.56,179.55L228.71,175.56L229.87,147.6L230.35,143.6L232.62,131.62L233.79,127.62L238.84,115.64L240.85,112.22L245.87,104.79L246.71,103.66L255.92,93.5L257.8,91.67L272.18,79.69L276.01,76.83L295.39,63.71L296.1,63.26L311.17,54.72L316.2,52.29L331.26,46.19L336.29,44.6L351.36,40.92L356.38,40.1L371.45,38.5L376.47,38.32L391.54,38.87L396.56,39.47L411.63,42.65L414.85,43.74L424.52,47.73L426.7,48.81L437.24,55.72L441.77,59.58L449.44,67.71L451.81,70.81L457.63,79.69L459.84,83.68L465.07,95.67L466.4,99.66L470.46,115.64L471.12,119.63L472.82,135.61L473.01,139.61L472.64,155.59L472.21,159.58L470.14,171.56L469.06,175.56L464.44,187.54L462.31,191.54L454.26,203.52L451.81,206.32L446.79,211.56L442.52,215.5L431.72,223.74L426.7,226.99L416.65,232.67L411.63,235.12L396.56,241.63L391.54,243.44L371.45,250.14L366.69,251.45L356.38,254.32L351.65,255.45L336.29,258.92L333.36,259.44L316.2,262.31L311.17,262.92L291.08,264.57L286.06,264.76L250.9,265.53L245.87,266.53L240.85,268.59L237.17,271.43L233.95,275.42L231.76,279.41L230.22,283.41L229.13,287.4L226.97,299.39L226.44,303.38L222.94,327.35L221.98,331.34L216.71,347.32L215.74,349.48L210.71,359.98L208.98,363.3L200.67,376.12L198.37,379.28L187.73,391.26L185.6,393.27L175.55,401.55L173.11,403.24L165.51,407.96L160.48,410.58L149.08,415.23L87.88,415.23Z" style="fill: rgb(19, 43, 67); fill-opacity: 1; stroke-width: 0;"/></g></g><g class="errorbars"/><g class="lines"><path class="js-line" d="M87.88,415.23L78.5,411.23L75.09,409.47L65.05,402.72L60.94,399.25L53.3,391.26L50.28,387.27L44.96,378.72L43.11,375.28L38.4,363.3L37.22,359.3L34.89,347.32L34.34,343.33L33.64,331.34L33.69,327.35L34.91,313.61L35.2,311.37L37.52,299.39L38.61,295.39L44.43,279.41L44.96,278.33L49.98,268.76L50.75,267.43L56.29,259.44L59.61,255.45L67.48,247.46L70.07,245.23L80.12,237.9L84.16,235.48L91.68,231.48L95.19,229.78L110.25,224.07L112.28,223.49L125.32,220.19L129.34,219.5L140.39,218.04L145.41,217.73L160.48,217.98L165.51,218.45L185.6,221.52L190.62,222.38L200.67,223.54L203.85,223.49L205.69,223.46L210.71,222.47L216.2,219.5L219.93,215.5L222.29,211.51L224.01,207.51L226.35,199.52L227.07,195.53L228.56,179.55L228.71,175.56L229.87,147.6L230.35,143.6L232.62,131.62L233.79,127.62L238.84,115.64L240.85,112.22L245.87,104.79L246.71,103.66L255.92,93.5L257.8,91.67L272.18,79.69L276.01,76.83L295.39,63.71L296.1,63.26L311.17,54.72L316.2,52.29L331.26,46.19L336.29,44.6L351.36,40.92L356.38,40.1L371.45,38.5L376.47,38.32L391.54,38.87L396.56,39.47L411.63,42.65L414.85,43.74L424.52,47.73L426.7,48.81L437.24,55.72L441.77,59.58L449.44,67.71L451.81,70.81L457.63,79.69L459.84,83.68L465.07,95.67L466.4,99.66L470.46,115.64L471.12,119.63L472.82,135.61L473.01,139.61L472.64,155.59L472.21,159.58L470.14,171.56L469.06,175.56L464.44,187.54L462.31,191.54L454.26,203.52L451.81,206.32L446.79,211.56L442.52,215.5L431.72,223.74L426.7,226.99L416.65,232.67L411.63,235.12L396.56,241.63L391.54,243.44L371.45,250.14L366.69,251.45L356.38,254.32L351.65,255.45L336.29,258.92L333.36,259.44L316.2,262.31L311.17,262.92L291.08,264.57L286.06,264.76L250.9,265.53L245.87,266.53L240.85,268.59L237.17,271.43L233.95,275.42L231.76,279.41L230.22,283.41L229.13,287.4L226.97,299.39L226.44,303.38L222.94,327.35L221.98,331.34L216.71,347.32L215.74,349.48L210.71,359.98L208.98,363.3L200.67,376.12L198.37,379.28L187.73,391.26L185.6,393.27L175.55,401.55L173.11,403.24L165.51,407.96L160.48,410.58L149.08,415.23L87.88,415.23" style="vector-effect: non-scaling-stroke; fill: none; stroke: rgb(0, 0, 0); stroke-opacity: 0; stroke-width: 1.88976px; opacity: 1;"/></g><g class="points"/><g class="text"/></g><g class="trace scatter trace20a1bb" style="stroke-miterlimit: 2; opacity: 1;"><g class="fills"><g><path class="js-fill" d="M49.98,340.3L49.44,331.34L49.48,327.35L50.53,315.37L51.17,311.37L54.15,299.39L55,296.91L58.73,287.4L60.02,284.82L65.46,275.42L68.29,271.43L75.29,263.44L79.58,259.44L85.14,255.05L90.16,251.71L100.21,246.36L105.23,244.27L115.28,241.01L120.3,239.85L135.37,237.88L140.39,237.78L150.44,238.48L155.46,239.32L165.51,242.04L169.11,243.46L176.98,247.46L180.58,249.85L187.02,255.45L190.36,259.44L195.12,267.43L195.64,268.67L198.17,275.42L199.25,279.41L202.01,295.39L202.42,299.39L202.97,315.37L202.78,319.36L201.22,331.34L200.67,333.82L198.15,343.33L196.7,347.32L190.62,360.19L188.87,363.3L180.22,375.28L176.67,379.28L167.99,387.27L165.51,389.2L155.46,395.61L150.44,398.13L140.39,401.92L135.37,403.22L125.32,404.88L120.3,405.19L110.25,404.77L105.23,404.03L95.19,401.42L90.16,399.45L80.12,394.01L76.32,391.26L70.07,385.74L67.74,383.27L61.66,375.28L60.02,372.53L57.21,367.29L55.5,363.3L51.71,351.32L50.91,347.32L49.98,340.3L49.98,340.3ZM250.9,184.53L249.27,171.56L248.97,167.57L248.71,155.59L248.9,151.59L250.56,139.61L250.9,138.28L252.7,131.62L254.2,127.62L258.11,119.63L260.62,115.64L266.67,107.65L270.31,103.66L281.03,93.75L283.58,91.67L296.1,82.47L300.33,79.69L313.72,71.7L316.2,70.35L331.26,63.5L336.29,61.62L351.36,57.49L356.38,56.58L371.45,55.12L376.47,55.08L391.54,56.43L396.56,57.42L406.61,60.42L411.63,62.49L421.68,68.11L426.55,71.7L431.72,76.3L434.97,79.69L441.77,88.58L443.75,91.67L449.66,103.66L451.12,107.65L454.56,119.63L455.36,123.63L457.17,139.61L457.31,143.6L456.8,155.59L456.35,159.58L453.79,171.56L452.43,175.56L446.78,187.54L444.32,191.54L436.75,200.92L434.25,203.52L424.88,211.51L421.68,213.83L411.63,220.02L406.61,222.67L391.54,229.24L386.52,231.03L366.42,236.99L361.4,238.17L341.31,241.76L336.29,242.34L321.22,243.25L316.2,243.25L301.13,242.12L296.1,241.27L286.06,238.6L281.03,236.64L276.01,234.07L272.07,231.48L265.97,225.93L263.92,223.49L259.11,215.5L257.39,211.51L253.71,199.52L252.81,195.53L250.9,184.53L250.9,184.53Z" style="fill: rgb(24, 54, 82); fill-opacity: 1; stroke-width: 0;"/></g></g><g class="errorbars"/><g class="lines"><path class="js-line" d="M49.98,340.3L49.44,331.34L49.48,327.35L50.53,315.37L51.17,311.37L54.15,299.39L55,296.91L58.73,287.4L60.02,284.82L65.46,275.42L68.29,271.43L75.29,263.44L79.58,259.44L85.14,255.05L90.16,251.71L100.21,246.36L105.23,244.27L115.28,241.01L120.3,239.85L135.37,237.88L140.39,237.78L150.44,238.48L155.46,239.32L165.51,242.04L169.11,243.46L176.98,247.46L180.58,249.85L187.02,255.45L190.36,259.44L195.12,267.43L195.64,268.67L198.17,275.42L199.25,279.41L202.01,295.39L202.42,299.39L202.97,315.37L202.78,319.36L201.22,331.34L200.67,333.82L198.15,343.33L196.7,347.32L190.62,360.19L188.87,363.3L180.22,375.28L176.67,379.28L167.99,387.27L165.51,389.2L155.46,395.61L150.44,398.13L140.39,401.92L135.37,403.22L125.32,404.88L120.3,405.19L110.25,404.77L105.23,404.03L95.19,401.42L90.16,399.45L80.12,394.01L76.32,391.26L70.07,385.74L67.74,383.27L61.66,375.28L60.02,372.53L57.21,367.29L55.5,363.3L51.71,351.32L50.91,347.32L49.98,340.3L49.98,340.3" style="vector-effect: non-scaling-stroke; fill: none; stroke: rgb(0, 0, 0); stroke-opacity: 0; stroke-width: 1.88976px; opacity: 1;"/><path class="js-line" d="M250.9,184.53L249.27,171.56L248.97,167.57L248.71,155.59L248.9,151.59L250.56,139.61L250.9,138.28L252.7,131.62L254.2,127.62L258.11,119.63L260.62,115.64L266.67,107.65L270.31,103.66L281.03,93.75L283.58,91.67L296.1,82.47L300.33,79.69L313.72,71.7L316.2,70.35L331.26,63.5L336.29,61.62L351.36,57.49L356.38,56.58L371.45,55.12L376.47,55.08L391.54,56.43L396.56,57.42L406.61,60.42L411.63,62.49L421.68,68.11L426.55,71.7L431.72,76.3L434.97,79.69L441.77,88.58L443.75,91.67L449.66,103.66L451.12,107.65L454.56,119.63L455.36,123.63L457.17,139.61L457.31,143.6L456.8,155.59L456.35,159.58L453.79,171.56L452.43,175.56L446.78,187.54L444.32,191.54L436.75,200.92L434.25,203.52L424.88,211.51L421.68,213.83L411.63,220.02L406.61,222.67L391.54,229.24L386.52,231.03L366.42,236.99L361.4,238.17L341.31,241.76L336.29,242.34L321.22,243.25L316.2,243.25L301.13,242.12L296.1,241.27L286.06,238.6L281.03,236.64L276.01,234.07L272.07,231.48L265.97,225.93L263.92,223.49L259.11,215.5L257.39,211.51L253.71,199.52L252.81,195.53L250.9,184.53L250.9,184.53" style="vector-effect: non-scaling-stroke; fill: none; stroke: rgb(0, 0, 0); stroke-opacity: 0; stroke-width: 1.88976px; opacity: 1;"/></g><g class="points"/><g class="text"/></g><g class="trace scatter trace2eeadd" style="stroke-miterlimit: 2; opacity: 1;"><g class="fills"><g><path class="js-fill" d="M65.05,356L63.49,351.32L62.47,347.32L60.8,335.34L60.64,331.34L61.28,319.36L61.86,315.37L65.05,302.72L66.19,299.39L70.07,290.69L71.84,287.4L77.19,279.41L80.12,275.87L85.14,270.71L88.98,267.43L95.19,263.01L100.21,260.12L111.43,255.45L115.28,254.25L125.32,252.29L130.35,251.86L140.39,252.07L145.41,252.76L155.46,255.6L160.48,257.89L168.69,263.44L170.53,265.09L176.04,271.43L178.63,275.42L182.47,283.41L183.91,287.4L186.92,299.39L187.58,303.38L188.57,315.37L188.57,319.36L187.44,331.34L186.65,335.34L183,347.32L181.28,351.32L175.55,361.6L174.45,363.3L168.08,371.29L165.51,373.96L159.52,379.28L155.46,382.29L145.41,387.99L140.39,390.07L130.35,392.86L125.32,393.61L115.28,393.89L110.25,393.41L100.21,391.06L95.19,389.14L85.02,383.27L80.17,379.28L73.07,371.29L70.42,367.29L66.31,359.3L65.05,356ZM265.97,185.08L263.69,175.56L263.02,171.56L262,159.58L262,155.59L263.2,143.6L264.08,139.61L266.7,131.62L268.45,127.62L273.05,119.63L275.98,115.64L282.96,107.65L286.06,104.67L296.1,96.2L296.8,95.67L311.17,85.89L314.97,83.68L326.24,77.79L331.05,75.7L336.29,73.59L341.31,71.89L356.38,68.21L360.03,67.71L366.42,67.03L371.45,66.83L384.62,67.71L386.52,67.95L396.56,70.27L400.65,71.7L406.61,74.21L409.4,75.7L416.65,80.27L420.91,83.68L426.7,89.39L428.66,91.67L434.31,99.66L436.55,103.66L440.22,111.65L441.64,115.64L444.82,127.62L445.49,131.62L446.5,143.6L446.52,147.6L445.5,159.58L444.75,163.57L441.77,173.38L440.96,175.56L436.75,183.84L434.43,187.54L426.7,196.86L424,199.52L413.96,207.51L411.63,209.08L400.12,215.5L396.56,217.21L379.72,223.49L376.47,224.51L361.4,228.15L356.38,229.08L341.31,230.86L336.29,231.12L321.22,230.74L316.2,230.15L304.35,227.49L301.13,226.45L291.08,221.69L287.79,219.5L281.03,213.63L279.11,211.51L273.49,203.52L271.38,199.52L267.98,191.54L266.66,187.54L265.97,185.08L265.97,185.08Z" style="fill: rgb(30, 65, 96); fill-opacity: 1; stroke-width: 0;"/></g></g><g class="errorbars"/><g class="lines"><path class="js-line" d="M65.05,356L63.49,351.32L62.47,347.32L60.8,335.34L60.64,331.34L61.28,319.36L61.86,315.37L65.05,302.72L66.19,299.39L70.07,290.69L71.84,287.4L77.19,279.41L80.12,275.87L85.14,270.71L88.98,267.43L95.19,263.01L100.21,260.12L111.43,255.45L115.28,254.25L125.32,252.29L130.35,251.86L140.39,252.07L145.41,252.76L155.46,255.6L160.48,257.89L168.69,263.44L170.53,265.09L176.04,271.43L178.63,275.42L182.47,283.41L183.91,287.4L186.92,299.39L187.58,303.38L188.57,315.37L188.57,319.36L187.44,331.34L186.65,335.34L183,347.32L181.28,351.32L175.55,361.6L174.45,363.3L168.08,371.29L165.51,373.96L159.52,379.28L155.46,382.29L145.41,387.99L140.39,390.07L130.35,392.86L125.32,393.61L115.28,393.89L110.25,393.41L100.21,391.06L95.19,389.14L85.02,383.27L80.17,379.28L73.07,371.29L70.42,367.29L66.31,359.3L65.05,356" style="vector-effect: non-scaling-stroke; fill: none; stroke: rgb(0, 0, 0); stroke-opacity: 0; stroke-width: 1.88976px; opacity: 1;"/><path class="js-line" d="M265.97,185.08L263.69,175.56L263.02,171.56L262,159.58L262,155.59L263.2,143.6L264.08,139.61L266.7,131.62L268.45,127.62L273.05,119.63L275.98,115.64L282.96,107.65L286.06,104.67L296.1,96.2L296.8,95.67L311.17,85.89L314.97,83.68L326.24,77.79L331.05,75.7L336.29,73.59L341.31,71.89L356.38,68.21L360.03,67.71L366.42,67.03L371.45,66.83L384.62,67.71L386.52,67.95L396.56,70.27L400.65,71.7L406.61,74.21L409.4,75.7L416.65,80.27L420.91,83.68L426.7,89.39L428.66,91.67L434.31,99.66L436.55,103.66L440.22,111.65L441.64,115.64L444.82,127.62L445.49,131.62L446.5,143.6L446.52,147.6L445.5,159.58L444.75,163.57L441.77,173.38L440.96,175.56L436.75,183.84L434.43,187.54L426.7,196.86L424,199.52L413.96,207.51L411.63,209.08L400.12,215.5L396.56,217.21L379.72,223.49L376.47,224.51L361.4,228.15L356.38,229.08L341.31,230.86L336.29,231.12L321.22,230.74L316.2,230.15L304.35,227.49L301.13,226.45L291.08,221.69L287.79,219.5L281.03,213.63L279.11,211.51L273.49,203.52L271.38,199.52L267.98,191.54L266.66,187.54L265.97,185.08L265.97,185.08" style="vector-effect: non-scaling-stroke; fill: none; stroke: rgb(0, 0, 0); stroke-opacity: 0; stroke-width: 1.88976px; opacity: 1;"/></g><g class="points"/><g class="text"/></g><g class="trace scatter trace2a1e6f" style="stroke-miterlimit: 2; opacity: 1;"><g class="fills"><g><path class="js-fill" d="M75.09,354.79L72.46,347.32L71.5,343.33L70.16,331.34L70.18,327.35L71.55,315.37L72.46,311.37L75.09,303.22L76.7,299.39L81.03,291.4L83.78,287.4L90.9,279.41L95.19,275.74L101.66,271.43L105.23,269.47L115.28,265.63L120.3,264.47L130.35,263.54L135.37,263.78L145.41,265.88L149.32,267.43L155.46,270.79L156.35,271.43L161.12,275.42L164.68,279.41L167.49,283.41L169.75,287.4L173.1,295.39L174.32,299.39L176.62,311.37L176.97,315.37L176.73,327.35L176.2,331.34L173.15,343.33L171.57,347.32L167.46,355.31L165.51,358.31L160.48,364.74L158.08,367.29L150.44,373.79L148.19,375.28L140.39,379.54L135.37,381.48L125.32,383.77L120.3,384.16L109.68,383.27L105.23,382.22L95.19,377.92L91.16,375.28L85.14,370.06L82.67,367.29L77.27,359.3L75.31,355.31L75.09,354.79L75.09,354.79ZM276.01,179.13L273.4,167.57L272.93,163.57L272.85,151.59L273.31,147.6L276.01,136.81L276.4,135.61L281.03,126.04L282.49,123.63L288.57,115.64L291.08,112.94L296.53,107.65L301.13,103.75L312.31,95.67L316.2,93.22L326.34,87.68L331.26,85.34L346.33,79.92L347.24,79.69L356.38,77.63L361.4,76.93L371.45,76.4L376.47,76.58L386.52,77.97L391.54,79.24L402.7,83.68L406.61,85.83L414.6,91.67L416.65,93.51L422.31,99.66L425.26,103.66L429.92,111.65L431.72,115.64L435.63,127.62L436.46,131.62L437.8,143.6L437.85,147.6L436.66,159.58L435.84,163.57L433.31,171.56L431.72,175.15L429.48,179.55L426.96,183.55L420.56,191.54L416.65,195.37L411.63,199.57L406.61,203.13L396.56,208.89L391.54,211.21L376.47,216.65L371.45,218.01L356.38,220.95L351.36,221.56L336.29,222.15L331.26,221.9L321.22,220.57L316.62,219.5L311.17,217.86L306.15,215.82L298.48,211.51L296.1,209.82L289.25,203.52L286.06,199.62L281.01,191.54L279.07,187.54L276.01,179.13L276.01,179.13Z" style="fill: rgb(36, 76, 112); fill-opacity: 1; stroke-width: 0;"/></g></g><g class="errorbars"/><g class="lines"><path class="js-line" d="M75.09,354.79L72.46,347.32L71.5,343.33L70.16,331.34L70.18,327.35L71.55,315.37L72.46,311.37L75.09,303.22L76.7,299.39L81.03,291.4L83.78,287.4L90.9,279.41L95.19,275.74L101.66,271.43L105.23,269.47L115.28,265.63L120.3,264.47L130.35,263.54L135.37,263.78L145.41,265.88L149.32,267.43L155.46,270.79L156.35,271.43L161.12,275.42L164.68,279.41L167.49,283.41L169.75,287.4L173.1,295.39L174.32,299.39L176.62,311.37L176.97,315.37L176.73,327.35L176.2,331.34L173.15,343.33L171.57,347.32L167.46,355.31L165.51,358.31L160.48,364.74L158.08,367.29L150.44,373.79L148.19,375.28L140.39,379.54L135.37,381.48L125.32,383.77L120.3,384.16L109.68,383.27L105.23,382.22L95.19,377.92L91.16,375.28L85.14,370.06L82.67,367.29L77.27,359.3L75.31,355.31L75.09,354.79L75.09,354.79" style="vector-effect: non-scaling-stroke; fill: none; stroke: rgb(0, 0, 0); stroke-opacity: 0; stroke-width: 1.88976px; opacity: 1;"/><path class="js-line" d="M276.01,179.13L273.4,167.57L272.93,163.57L272.85,151.59L273.31,147.6L276.01,136.81L276.4,135.61L281.03,126.04L282.49,123.63L288.57,115.64L291.08,112.94L296.53,107.65L301.13,103.75L312.31,95.67L316.2,93.22L326.34,87.68L331.26,85.34L346.33,79.92L347.24,79.69L356.38,77.63L361.4,76.93L371.45,76.4L376.47,76.58L386.52,77.97L391.54,79.24L402.7,83.68L406.61,85.83L414.6,91.67L416.65,93.51L422.31,99.66L425.26,103.66L429.92,111.65L431.72,115.64L435.63,127.62L436.46,131.62L437.8,143.6L437.85,147.6L436.66,159.58L435.84,163.57L433.31,171.56L431.72,175.15L429.48,179.55L426.96,183.55L420.56,191.54L416.65,195.37L411.63,199.57L406.61,203.13L396.56,208.89L391.54,211.21L376.47,216.65L371.45,218.01L356.38,220.95L351.36,221.56L336.29,222.15L331.26,221.9L321.22,220.57L316.62,219.5L311.17,217.86L306.15,215.82L298.48,211.51L296.1,209.82L289.25,203.52L286.06,199.62L281.01,191.54L279.07,187.54L276.01,179.13L276.01,179.13" style="vector-effect: non-scaling-stroke; fill: none; stroke: rgb(0, 0, 0); stroke-opacity: 0; stroke-width: 1.88976px; opacity: 1;"/></g><g class="points"/><g class="text"/></g><g class="trace scatter trace1acc63" style="stroke-miterlimit: 2; opacity: 1;"><g class="fills"><g><path class="js-fill" d="M80.12,340.25L79.35,335.34L79.07,331.34L79.33,323.35L79.86,319.36L81.77,311.37L83.17,307.38L87.02,299.39L89.55,295.39L95.19,288.64L96.49,287.4L105.23,280.83L107.95,279.41L115.28,276.44L119.53,275.42L125.32,274.65L130.35,274.67L140.39,276.73L145.41,278.98L151.65,283.41L155.46,287.28L158.45,291.4L160.48,294.86L162.56,299.39L164,303.38L165.93,311.37L166.48,315.37L166.79,323.35L166.55,327.35L165.24,335.34L164.14,339.33L160.48,348.14L158.7,351.32L152.71,359.3L150.44,361.65L143.36,367.29L140.39,369.13L130.35,373.25L125.32,374.3L115.28,374.54L110.25,373.7L103.34,371.29L100.21,369.74L95.19,366.32L91.89,363.3L88.44,359.3L85.75,355.31L82.05,347.32L80.81,343.33L80.12,340.25L80.12,340.25ZM286.06,178.84L283.74,171.56L282.89,167.57L281.98,159.58L281.93,155.59L282.65,147.6L283.46,143.6L286.14,135.61L287.98,131.62L292.98,123.63L296.1,119.72L306.15,109.81L308.8,107.65L320.4,99.66L321.22,99.16L331.26,93.83L336.23,91.67L348.1,87.68L351.36,86.82L361.4,85.12L366.42,84.75L376.47,85.02L381.49,85.71L391.54,88.35L396.56,90.4L405.52,95.67L406.61,96.44L414.43,103.66L416.65,106.3L421.68,113.8L422.7,115.64L426.7,125.21L427.48,127.62L429.85,139.61L430.16,143.6L429.67,155.59L429,159.58L426.7,167.71L425.19,171.56L420.82,179.55L417.96,183.55L410.46,191.54L406.61,194.76L399.69,199.52L396.56,201.38L386.52,206.2L383.06,207.51L376.47,209.76L371.45,211.12L356.38,213.9L351.36,214.36L341.31,214.59L336.29,214.32L326.24,212.85L321.22,211.55L311.08,207.51L306.15,204.64L299.67,199.52L296.1,195.84L291.08,189.02L290.16,187.54L286.06,178.84L286.06,178.84Z" style="fill: rgb(42, 88, 128); fill-opacity: 1; stroke-width: 0;"/></g></g><g class="errorbars"/><g class="lines"><path class="js-line" d="M80.12,340.25L79.35,335.34L79.07,331.34L79.33,323.35L79.86,319.36L81.77,311.37L83.17,307.38L87.02,299.39L89.55,295.39L95.19,288.64L96.49,287.4L105.23,280.83L107.95,279.41L115.28,276.44L119.53,275.42L125.32,274.65L130.35,274.67L140.39,276.73L145.41,278.98L151.65,283.41L155.46,287.28L158.45,291.4L160.48,294.86L162.56,299.39L164,303.38L165.93,311.37L166.48,315.37L166.79,323.35L166.55,327.35L165.24,335.34L164.14,339.33L160.48,348.14L158.7,351.32L152.71,359.3L150.44,361.65L143.36,367.29L140.39,369.13L130.35,373.25L125.32,374.3L115.28,374.54L110.25,373.7L103.34,371.29L100.21,369.74L95.19,366.32L91.89,363.3L88.44,359.3L85.75,355.31L82.05,347.32L80.81,343.33L80.12,340.25L80.12,340.25" style="vector-effect: non-scaling-stroke; fill: none; stroke: rgb(0, 0, 0); stroke-opacity: 0; stroke-width: 1.88976px; opacity: 1;"/><path class="js-line" d="M286.06,178.84L283.74,171.56L282.89,167.57L281.98,159.58L281.93,155.59L282.65,147.6L283.46,143.6L286.14,135.61L287.98,131.62L292.98,123.63L296.1,119.72L306.15,109.81L308.8,107.65L320.4,99.66L321.22,99.16L331.26,93.83L336.23,91.67L348.1,87.68L351.36,86.82L361.4,85.12L366.42,84.75L376.47,85.02L381.49,85.71L391.54,88.35L396.56,90.4L405.52,95.67L406.61,96.44L414.43,103.66L416.65,106.3L421.68,113.8L422.7,115.64L426.7,125.21L427.48,127.62L429.85,139.61L430.16,143.6L429.67,155.59L429,159.58L426.7,167.71L425.19,171.56L420.82,179.55L417.96,183.55L410.46,191.54L406.61,194.76L399.69,199.52L396.56,201.38L386.52,206.2L383.06,207.51L376.47,209.76L371.45,211.12L356.38,213.9L351.36,214.36L341.31,214.59L336.29,214.32L326.24,212.85L321.22,211.55L311.08,207.51L306.15,204.64L299.67,199.52L296.1,195.84L291.08,189.02L290.16,187.54L286.06,178.84L286.06,178.84" style="vector-effect: non-scaling-stroke; fill: none; stroke: rgb(0, 0, 0); stroke-opacity: 0; stroke-width: 1.88976px; opacity: 1;"/></g><g class="points"/><g class="text"/></g><g class="trace scatter trace581357" style="stroke-miterlimit: 2; opacity: 1;"><g class="fills"><g><path class="js-fill" d="M90.16,342.06L88.6,335.34L88.2,331.34L88.45,323.35L89.09,319.36L91.49,311.37L93.31,307.38L98.58,299.39L100.21,297.5L107.62,291.4L110.25,289.79L116.07,287.4L120.3,286.34L125.32,285.89L130.35,286.27L135.37,287.55L140.39,289.98L146.83,295.39L149.94,299.39L152.19,303.38L153.89,307.38L156.02,315.37L156.5,319.36L156.48,327.35L155.96,331.34L153.77,339.33L152.04,343.33L146.9,351.32L145.41,353.04L140.39,357.64L137.94,359.3L130.35,363.09L129.58,363.3L125.32,364.38L120.3,364.87L115.28,364.54L110.25,363.37L105.23,361.13L102.45,359.3L97.87,355.31L95.19,352.12L92.33,347.32L90.57,343.33L90.16,342.06ZM291.08,164.69L290.47,159.58L290.37,155.59L291.18,147.6L292.07,143.6L295.02,135.61L296.1,133.54L301.13,125.67L302.7,123.63L311.17,114.99L315.24,111.65L321.22,107.39L326.24,104.3L336.29,99.24L341.31,97.23L351.36,94.21L356.38,93.2L366.42,92.22L371.45,92.27L381.49,93.58L386.52,94.93L396.56,99.3L397.16,99.66L402.99,103.66L406.61,106.79L411.63,112.4L413.93,115.64L418.27,123.63L419.85,127.62L422.04,135.61L422.71,139.61L423.23,147.6L423.07,151.59L421.68,160.34L420.82,163.57L416.65,173.3L415.37,175.56L409.31,183.55L406.61,186.3L400.38,191.54L396.56,194.17L386.52,199.57L381.49,201.66L371.45,204.82L366.42,205.96L355.3,207.51L351.36,207.79L340.11,207.51L336.29,207.1L326.24,204.9L322.33,203.52L316.2,200.73L314.14,199.52L306.15,193.51L304.15,191.54L298.02,183.55L296.1,180.1L294.03,175.56L292.64,171.56L291.08,164.69L291.08,164.69Z" style="fill: rgb(48, 100, 144); fill-opacity: 1; stroke-width: 0;"/></g></g><g class="errorbars"/><g class="lines"><path class="js-line" d="M90.16,342.06L88.6,335.34L88.2,331.34L88.45,323.35L89.09,319.36L91.49,311.37L93.31,307.38L98.58,299.39L100.21,297.5L107.62,291.4L110.25,289.79L116.07,287.4L120.3,286.34L125.32,285.89L130.35,286.27L135.37,287.55L140.39,289.98L146.83,295.39L149.94,299.39L152.19,303.38L153.89,307.38L156.02,315.37L156.5,319.36L156.48,327.35L155.96,331.34L153.77,339.33L152.04,343.33L146.9,351.32L145.41,353.04L140.39,357.64L137.94,359.3L130.35,363.09L129.58,363.3L125.32,364.38L120.3,364.87L115.28,364.54L110.25,363.37L105.23,361.13L102.45,359.3L97.87,355.31L95.19,352.12L92.33,347.32L90.57,343.33L90.16,342.06" style="vector-effect: non-scaling-stroke; fill: none; stroke: rgb(0, 0, 0); stroke-opacity: 0; stroke-width: 1.88976px; opacity: 1;"/><path class="js-line" d="M291.08,164.69L290.47,159.58L290.37,155.59L291.18,147.6L292.07,143.6L295.02,135.61L296.1,133.54L301.13,125.67L302.7,123.63L311.17,114.99L315.24,111.65L321.22,107.39L326.24,104.3L336.29,99.24L341.31,97.23L351.36,94.21L356.38,93.2L366.42,92.22L371.45,92.27L381.49,93.58L386.52,94.93L396.56,99.3L397.16,99.66L402.99,103.66L406.61,106.79L411.63,112.4L413.93,115.64L418.27,123.63L419.85,127.62L422.04,135.61L422.71,139.61L423.23,147.6L423.07,151.59L421.68,160.34L420.82,163.57L416.65,173.3L415.37,175.56L409.31,183.55L406.61,186.3L400.38,191.54L396.56,194.17L386.52,199.57L381.49,201.66L371.45,204.82L366.42,205.96L355.3,207.51L351.36,207.79L340.11,207.51L336.29,207.1L326.24,204.9L322.33,203.52L316.2,200.73L314.14,199.52L306.15,193.51L304.15,191.54L298.02,183.55L296.1,180.1L294.03,175.56L292.64,171.56L291.08,164.69L291.08,164.69" style="vector-effect: non-scaling-stroke; fill: none; stroke: rgb(0, 0, 0); stroke-opacity: 0; stroke-width: 1.88976px; opacity: 1;"/></g><g class="points"/><g class="text"/></g><g class="trace scatter trace3a9c70" style="stroke-miterlimit: 2; opacity: 1;"><g class="fills"><g><path class="js-fill" d="M100.21,338.03L98.77,331.34L98.63,327.35L99.81,319.36L100.21,318.14L103.42,311.37L105.23,308.67L110.65,303.38L115.28,300.72L120.3,299.15L125.32,298.91L130.35,299.97L135.37,302.65L140.39,307.83L142.37,311.37L144.94,319.36L145.37,323.35L144.62,331.34L143.43,335.34L140.39,341.53L139.09,343.33L135.37,347.4L130.35,350.76L125.32,352.61L120.3,353.21L115.28,352.59L111.92,351.32L110.25,350.57L106.03,347.32L102.86,343.33L100.69,339.33L100.21,338.03ZM301.13,171.43L299,163.57L298.49,159.58L298.58,151.59L299.19,147.6L301.62,139.61L303.48,135.61L308.69,127.62L311.17,124.7L316.2,119.63L321.03,115.64L331.26,109L333.86,107.65L343.1,103.66L346.33,102.52L356.38,100.1L359.84,99.66L366.42,99.2L371.45,99.36L381.49,101.05L386.52,102.69L395.97,107.65L396.56,108.04L404.89,115.64L406.61,117.77L410.41,123.63L411.63,126.06L413.89,131.62L415.05,135.61L416.35,143.6L416.52,147.6L415.9,155.59L415.09,159.58L411.63,168.91L410.25,171.56L404.48,179.55L401.59,182.56L395.64,187.54L391.54,190.3L381.16,195.53L376.47,197.28L366.42,199.95L361.4,200.8L351.36,201.57L346.33,201.47L336.29,200.19L333.59,199.52L326.24,197.13L322.81,195.53L316.2,191.51L311.54,187.54L306.15,181.09L305.11,179.55L301.13,171.43L301.13,171.43Z" style="fill: rgb(54, 112, 160); fill-opacity: 1; stroke-width: 0;"/></g></g><g class="errorbars"/><g class="lines"><path class="js-line" d="M100.21,338.03L98.77,331.34L98.63,327.35L99.81,319.36L100.21,318.14L103.42,311.37L105.23,308.67L110.65,303.38L115.28,300.72L120.3,299.15L125.32,298.91L130.35,299.97L135.37,302.65L140.39,307.83L142.37,311.37L144.94,319.36L145.37,323.35L144.62,331.34L143.43,335.34L140.39,341.53L139.09,343.33L135.37,347.4L130.35,350.76L125.32,352.61L120.3,353.21L115.28,352.59L111.92,351.32L110.25,350.57L106.03,347.32L102.86,343.33L100.69,339.33L100.21,338.03" style="vector-effect: non-scaling-stroke; fill: none; stroke: rgb(0, 0, 0); stroke-opacity: 0; stroke-width: 1.88976px; opacity: 1;"/><path class="js-line" d="M301.13,171.43L299,163.57L298.49,159.58L298.58,151.59L299.19,147.6L301.62,139.61L303.48,135.61L308.69,127.62L311.17,124.7L316.2,119.63L321.03,115.64L331.26,109L333.86,107.65L343.1,103.66L346.33,102.52L356.38,100.1L359.84,99.66L366.42,99.2L371.45,99.36L381.49,101.05L386.52,102.69L395.97,107.65L396.56,108.04L404.89,115.64L406.61,117.77L410.41,123.63L411.63,126.06L413.89,131.62L415.05,135.61L416.35,143.6L416.52,147.6L415.9,155.59L415.09,159.58L411.63,168.91L410.25,171.56L404.48,179.55L401.59,182.56L395.64,187.54L391.54,190.3L381.16,195.53L376.47,197.28L366.42,199.95L361.4,200.8L351.36,201.57L346.33,201.47L336.29,200.19L333.59,199.52L326.24,197.13L322.81,195.53L316.2,191.51L311.54,187.54L306.15,181.09L305.11,179.55L301.13,171.43L301.13,171.43" style="vector-effect: non-scaling-stroke; fill: none; stroke: rgb(0, 0, 0); stroke-opacity: 0; stroke-width: 1.88976px; opacity: 1;"/></g><g class="points"/><g class="text"/></g><g class="trace scatter trace369cd7" style="stroke-miterlimit: 2; opacity: 1;"><g class="fills"><g><path class="js-fill" d="M120.3,329.75L119.11,327.35L120.23,323.35L120.59,323.35L123.94,327.35L120.3,329.75L120.3,329.75ZM306.15,155.73L306.37,151.59L307.02,147.6L309.71,139.61L311.17,136.79L314.46,131.62L316.2,129.44L321.71,123.63L326.24,119.86L332.56,115.64L336.29,113.55L346.33,109.28L351.36,107.8L361.4,106.12L366.42,105.94L376.47,107.01L378.89,107.65L386.52,110.41L388.81,111.65L394.71,115.64L396.56,117.21L402.2,123.63L404.67,127.62L408.03,135.61L409.04,139.61L409.9,147.6L409.77,151.59L408.34,159.58L407,163.57L402.79,171.56L401.59,173.22L395.93,179.55L391.54,183.19L384.56,187.54L381.49,189.1L371.45,192.8L366.42,194.02L356.38,195.33L351.36,195.44L341.31,194.45L336.29,193.27L326.24,189.13L323.66,187.54L318.51,183.55L316.2,181.23L311.86,175.56L311.17,174.36L308.1,167.57L306.99,163.57L306.15,155.73L306.15,155.73Z" style="fill: rgb(60, 125, 177); fill-opacity: 1; stroke-width: 0;"/></g></g><g class="errorbars"/><g class="lines"><path class="js-line" d="M120.3,329.75L119.11,327.35L120.23,323.35L120.59,323.35L123.94,327.35L120.3,329.75L120.3,329.75" style="vector-effect: non-scaling-stroke; fill: none; stroke: rgb(0, 0, 0); stroke-opacity: 0; stroke-width: 1.88976px; opacity: 1;"/><path class="js-line" d="M306.15,155.73L306.37,151.59L307.02,147.6L309.71,139.61L311.17,136.79L314.46,131.62L316.2,129.44L321.71,123.63L326.24,119.86L332.56,115.64L336.29,113.55L346.33,109.28L351.36,107.8L361.4,106.12L366.42,105.94L376.47,107.01L378.89,107.65L386.52,110.41L388.81,111.65L394.71,115.64L396.56,117.21L402.2,123.63L404.67,127.62L408.03,135.61L409.04,139.61L409.9,147.6L409.77,151.59L408.34,159.58L407,163.57L402.79,171.56L401.59,173.22L395.93,179.55L391.54,183.19L384.56,187.54L381.49,189.1L371.45,192.8L366.42,194.02L356.38,195.33L351.36,195.44L341.31,194.45L336.29,193.27L326.24,189.13L323.66,187.54L318.51,183.55L316.2,181.23L311.86,175.56L311.17,174.36L308.1,167.57L306.99,163.57L306.15,155.73L306.15,155.73" style="vector-effect: non-scaling-stroke; fill: none; stroke: rgb(0, 0, 0); stroke-opacity: 0; stroke-width: 1.88976px; opacity: 1;"/></g><g class="points"/><g class="text"/></g><g class="trace scatter tracea83e16" style="stroke-miterlimit: 2; opacity: 1;"><g class="fills"><g><path class="js-fill" d="M316.2,166.64L314.32,159.58L314.01,155.59L314.91,147.6L316.13,143.6L321.22,134.4L323.42,131.62L331.26,124.31L332.2,123.63L341.31,118.22L346.33,116.09L356.38,113.39L361.4,112.78L371.45,113.12L376.47,114.16L381.49,115.89L386.52,118.52L392.91,123.63L396.35,127.62L398.83,131.62L400.69,135.61L402.77,143.6L403.11,147.6L402.45,155.59L401.59,158.96L399.83,163.57L397.69,167.57L394.82,171.56L391.54,175.16L386.2,179.55L381.49,182.45L371.45,186.66L368.13,187.54L361.4,188.81L356.38,189.21L346.33,188.67L341.31,187.66L336.29,186.01L331.26,183.66L325.42,179.55L321.45,175.56L318.62,171.56L316.54,167.57L316.2,166.64Z" style="fill: rgb(66, 138, 194); fill-opacity: 1; stroke-width: 0;"/></g></g><g class="errorbars"/><g class="lines"><path class="js-line" d="M316.2,166.64L314.32,159.58L314.01,155.59L314.91,147.6L316.13,143.6L321.22,134.4L323.42,131.62L331.26,124.31L332.2,123.63L341.31,118.22L346.33,116.09L356.38,113.39L361.4,112.78L371.45,113.12L376.47,114.16L381.49,115.89L386.52,118.52L392.91,123.63L396.35,127.62L398.83,131.62L400.69,135.61L402.77,143.6L403.11,147.6L402.45,155.59L401.59,158.96L399.83,163.57L397.69,167.57L394.82,171.56L391.54,175.16L386.2,179.55L381.49,182.45L371.45,186.66L368.13,187.54L361.4,188.81L356.38,189.21L346.33,188.67L341.31,187.66L336.29,186.01L331.26,183.66L325.42,179.55L321.45,175.56L318.62,171.56L316.54,167.57L316.2,166.64" style="vector-effect: non-scaling-stroke; fill: none; stroke: rgb(0, 0, 0); stroke-opacity: 0; stroke-width: 1.88976px; opacity: 1;"/></g><g class="points"/><g class="text"/></g><g class="trace scatter trace5c0489" style="stroke-miterlimit: 2; opacity: 1;"><g class="fills"><g><path class="js-fill" d="M326.24,168.29L323.91,163.57L322.76,159.58L322.44,151.59L323.22,147.6L326.69,139.61L329.58,135.61L336.29,129.21L338.52,127.62L346.33,123.33L351.36,121.54L361.4,119.7L366.42,119.7L371.45,120.38L376.47,121.82L381.49,124.17L386.27,127.62L389.92,131.62L391.54,133.94L394.24,139.61L395.33,143.6L395.76,151.59L395.12,155.59L392.04,163.57L391.54,164.39L385.68,171.56L381.49,174.93L376.47,177.88L372.67,179.55L366.42,181.48L361.4,182.38L351.36,182.5L346.33,181.67L339.81,179.55L336.29,177.79L331.26,174.17L328.69,171.56L326.24,168.29L326.24,168.29Z" style="fill: rgb(73, 150, 211); fill-opacity: 1; stroke-width: 0;"/></g></g><g class="errorbars"/><g class="lines"><path class="js-line" d="M326.24,168.29L323.91,163.57L322.76,159.58L322.44,151.59L323.22,147.6L326.69,139.61L329.58,135.61L336.29,129.21L338.52,127.62L346.33,123.33L351.36,121.54L361.4,119.7L366.42,119.7L371.45,120.38L376.47,121.82L381.49,124.17L386.27,127.62L389.92,131.62L391.54,133.94L394.24,139.61L395.33,143.6L395.76,151.59L395.12,155.59L392.04,163.57L391.54,164.39L385.68,171.56L381.49,174.93L376.47,177.88L372.67,179.55L366.42,181.48L361.4,182.38L351.36,182.5L346.33,181.67L339.81,179.55L336.29,177.79L331.26,174.17L328.69,171.56L326.24,168.29L326.24,168.29" style="vector-effect: non-scaling-stroke; fill: none; stroke: rgb(0, 0, 0); stroke-opacity: 0; stroke-width: 1.88976px; opacity: 1;"/></g><g class="points"/><g class="text"/></g><g class="trace scatter trace7e3b90" style="stroke-miterlimit: 2; opacity: 1;"><g class="fills"><g><path class="js-fill" d="M336.29,166.58L334.17,163.57L332.39,159.58L331.57,155.59L331.64,151.59L332.54,147.6L334.27,143.6L336.9,139.61L340.79,135.61L346.62,131.62L351.36,129.53L359.82,127.62L361.4,127.44L366.57,127.62L371.45,128.71L377.61,131.62L381.49,134.78L384.99,139.61L386.52,143.08L387.44,147.6L387.45,151.59L386.52,156.22L385.13,159.58L381.49,164.93L378.78,167.57L372.81,171.56L371.45,172.26L361.4,175.07L356.38,175.33L351.36,174.8L346.33,173.41L341.31,170.96L337.16,167.57L336.29,166.58L336.29,166.58Z" style="fill: rgb(79, 164, 229); fill-opacity: 1; stroke-width: 0;"/></g></g><g class="errorbars"/><g class="lines"><path class="js-line" d="M336.29,166.58L334.17,163.57L332.39,159.58L331.57,155.59L331.64,151.59L332.54,147.6L334.27,143.6L336.9,139.61L340.79,135.61L346.62,131.62L351.36,129.53L359.82,127.62L361.4,127.44L366.57,127.62L371.45,128.71L377.61,131.62L381.49,134.78L384.99,139.61L386.52,143.08L387.44,147.6L387.45,151.59L386.52,156.22L385.13,159.58L381.49,164.93L378.78,167.57L372.81,171.56L371.45,172.26L361.4,175.07L356.38,175.33L351.36,174.8L346.33,173.41L341.31,170.96L337.16,167.57L336.29,166.58L336.29,166.58" style="vector-effect: non-scaling-stroke; fill: none; stroke: rgb(0, 0, 0); stroke-opacity: 0; stroke-width: 1.88976px; opacity: 1;"/></g><g class="points"/><g class="text"/></g><g class="trace scatter trace4d6fae" style="stroke-miterlimit: 2; opacity: 1;"><g class="fills"><g><path class="js-fill" d="M346.33,160.16L345.85,159.58L344.1,155.59L343.86,151.59L344.98,147.6L347.75,143.6L351.36,140.65L356.38,138.43L361.4,137.7L366.42,138.33L369.43,139.61L371.45,140.86L373.98,143.6L375.92,147.6L376.24,151.59L375.06,155.59L372.44,159.58L371.45,160.56L366.97,163.57L366.42,163.85L361.4,165.16L356.38,165.22L351.36,163.95L350.65,163.57L346.33,160.16Z" style="fill: rgb(86, 177, 247); fill-opacity: 1; stroke-width: 0;"/></g></g><g class="errorbars"/><g class="lines"><path class="js-line" d="M346.33,160.16L345.85,159.58L344.1,155.59L343.86,151.59L344.98,147.6L347.75,143.6L351.36,140.65L356.38,138.43L361.4,137.7L366.42,138.33L369.43,139.61L371.45,140.86L373.98,143.6L375.92,147.6L376.24,151.59L375.06,155.59L372.44,159.58L371.45,160.56L366.97,163.57L366.42,163.85L361.4,165.16L356.38,165.22L351.36,163.95L350.65,163.57L346.33,160.16" style="vector-effect: non-scaling-stroke; fill: none; stroke: rgb(0, 0, 0); stroke-opacity: 0; stroke-width: 1.88976px; opacity: 1;"/></g><g class="points"/><g class="text"/></g><g class="trace scatter tracefc0c64" style="stroke-miterlimit: 2; opacity: 0;"><g class="fills"/><g class="errorbars"/><g class="lines"/><g class="points"><path class="point" transform="translate(124.32,415.23)" d="M3,0A3,3 0 1,1 0,-3A3,3 0 0,1 3,0Z" style="opacity: 1; stroke-width: 0px; fill: rgb(19, 43, 67); fill-opacity: 1;"/></g><g class="text"/></g></g></g><g class="overplot"/><path class="xlines-above crisp" d="" style="fill: none; stroke-width: 1px; stroke: rgb(0, 0, 0); stroke-opacity: 0;"/><path class="ylines-above crisp" d="" style="fill: none; stroke-width: 1px; stroke: rgb(0, 0, 0); stroke-opacity: 0;"/><g class="overlines-above"/><g class="xaxislayer-above"><path class="xtick ticks crisp" d="M0,458v3.65296803652968" transform="translate(175.32,0)" style="stroke: rgb(51, 51, 51); stroke-opacity: 1; stroke-width: 0.664176px;"/><path class="xtick ticks crisp" d="M0,458v3.65296803652968" transform="translate(374.23,0)" style="stroke: rgb(51, 51, 51); stroke-opacity: 1; stroke-width: 0.664176px;"/><path class="xtick ticks crisp" d="M0,458v3.65296803652968" transform="translate(573.14,0)" style="stroke: rgb(51, 51, 51); stroke-opacity: 1; stroke-width: 0.664176px;"/><g class="xtick"><text text-anchor="middle" x="0" y="475.6803652968037" transform="translate(175.32,0)" style="font-family: 'Open Sans', verdana, arial, sans-serif; font-size: 11.6895px; fill: rgb(77, 77, 77); fill-opacity: 1; white-space: pre;">2</text></g><g class="xtick"><text text-anchor="middle" x="0" y="475.6803652968037" transform="translate(374.23,0)" style="font-family: 'Open Sans', verdana, arial, sans-serif; font-size: 11.6895px; fill: rgb(77, 77, 77); fill-opacity: 1; white-space: pre;">4</text></g><g class="xtick"><text text-anchor="middle" x="0" y="475.6803652968037" transform="translate(573.14,0)" style="font-family: 'Open Sans', verdana, arial, sans-serif; font-size: 11.6895px; fill: rgb(77, 77, 77); fill-opacity: 1; white-space: pre;">6</text></g></g><g class="yaxislayer-above"><path class="ytick ticks crisp" d="M50,0h-3.65296803652968" transform="translate(0,437.23)" style="stroke: rgb(51, 51, 51); stroke-opacity: 1; stroke-width: 0.664176px;"/><path class="ytick ticks crisp" d="M50,0h-3.65296803652968" transform="translate(0,305.41)" style="stroke: rgb(51, 51, 51); stroke-opacity: 1; stroke-width: 0.664176px;"/><path class="ytick ticks crisp" d="M50,0h-3.65296803652968" transform="translate(0,173.59)" style="stroke: rgb(51, 51, 51); stroke-opacity: 1; stroke-width: 0.664176px;"/><path class="ytick ticks crisp" d="M50,0h-3.65296803652968" transform="translate(0,41.769999999999996)" style="stroke: rgb(51, 51, 51); stroke-opacity: 1; stroke-width: 0.664176px;"/><g class="ytick"><text text-anchor="end" x="44.00913242009132" y="4.09132420091325" transform="translate(0,437.23)" style="font-family: 'Open Sans', verdana, arial, sans-serif; font-size: 11.6895px; fill: rgb(77, 77, 77); fill-opacity: 1; white-space: pre;">40</text></g><g class="ytick"><text text-anchor="end" x="44.00913242009132" y="4.09132420091325" transform="translate(0,305.41)" style="font-family: 'Open Sans', verdana, arial, sans-serif; font-size: 11.6895px; fill: rgb(77, 77, 77); fill-opacity: 1; white-space: pre;">60</text></g><g class="ytick"><text text-anchor="end" x="44.00913242009132" y="4.09132420091325" transform="translate(0,173.59)" style="font-family: 'Open Sans', verdana, arial, sans-serif; font-size: 11.6895px; fill: rgb(77, 77, 77); fill-opacity: 1; white-space: pre;">80</text></g><g class="ytick"><text text-anchor="end" x="44.00913242009132" y="4.09132420091325" transform="translate(0,41.769999999999996)" style="font-family: 'Open Sans', verdana, arial, sans-serif; font-size: 11.6895px; fill: rgb(77, 77, 77); fill-opacity: 1; white-space: pre;">100</text></g></g><g class="overaxes-above"/></g></g><g class="polarlayer"/><g class="ternarylayer"/><g class="geolayer"/><g class="pielayer"/><g class="sunburstlayer"/><g class="glimages"/><defs id="topdefs-cda0ca"><g class="clips"/></defs><g class="layer-above"><g class="imagelayer"/><g class="shapelayer"><path data-index="0" fill-rule="evenodd" d="M51,457H598V22H51Z" style="opacity: 1; stroke: rgb(0, 0, 0); stroke-opacity: 0; fill: rgb(0, 0, 0); fill-opacity: 0; stroke-width: 0px;"/></g></g><g class="infolayer"><g class="g-gtitle"/><g class="cbfc0c64 colorbar" transform="translate(51,22)"><rect class="cbbg" x="556.5551181102362" y="107.55511811023622" width="84.18663877952756" height="220.88976377952756" style="fill: rgb(255, 255, 255); fill-opacity: 1; stroke: rgb(0, 0, 0); stroke-opacity: 0; stroke-width: 1.88976;"/><g class="cbfills" transform="translate(0,141)"><rect class="cbfill" x="568" width="23" y="0" height="175" style="stroke: none; fill: url('#gcda0ca-cbfc0c64');"/></g><g class="cblines" transform="translate(0,141)"/><g class="cbaxis crisp" transform="translate(0,-22)"><path class="ycbfc0c64tick ticks crisp" d="M591,0h2" transform="translate(0,314.64)" style="stroke: rgb(68, 68, 68); stroke-opacity: 1; stroke-width: 1px;"/><path class="ycbfc0c64tick ticks crisp" d="M591,0h2" transform="translate(0,274.85999999999996)" style="stroke: rgb(68, 68, 68); stroke-opacity: 1; stroke-width: 1px;"/><path class="ycbfc0c64tick ticks crisp" d="M591,0h2" transform="translate(0,235.08999999999997)" style="stroke: rgb(68, 68, 68); stroke-opacity: 1; stroke-width: 1px;"/><path class="ycbfc0c64tick ticks crisp" d="M591,0h2" transform="translate(0,195.31999999999996)" style="stroke: rgb(68, 68, 68); stroke-opacity: 1; stroke-width: 1px;"/><g class="ycbfc0c64tick"><text text-anchor="start" x="595.337899543379" y="4.09132420091325" transform="translate(0,314.64)" style="font-family: 'Open Sans', verdana, arial, sans-serif; font-size: 11.6895px; fill: rgb(0, 0, 0); fill-opacity: 1; white-space: pre;">0.005</text></g><g class="ycbfc0c64tick"><text text-anchor="start" x="595.337899543379" y="4.09132420091325" transform="translate(0,274.85999999999996)" style="font-family: 'Open Sans', verdana, arial, sans-serif; font-size: 11.6895px; fill: rgb(0, 0, 0); fill-opacity: 1; white-space: pre;">0.010</text></g><g class="ycbfc0c64tick"><text text-anchor="start" x="595.337899543379" y="4.09132420091325" transform="translate(0,235.08999999999997)" style="font-family: 'Open Sans', verdana, arial, sans-serif; font-size: 11.6895px; fill: rgb(0, 0, 0); fill-opacity: 1; white-space: pre;">0.015</text></g><g class="ycbfc0c64tick"><text text-anchor="start" x="595.337899543379" y="4.09132420091325" transform="translate(0,195.31999999999996)" style="font-family: 'Open Sans', verdana, arial, sans-serif; font-size: 11.6895px; fill: rgb(0, 0, 0); fill-opacity: 1; white-space: pre;">0.020</text></g></g><g class="cbtitleunshift" transform="translate(-51,-22)"><g class="cbtitle" transform="translate(-0.5,-0.5)"><text class="ycbfc0c64title" x="618.9399999999999" y="154.458904109589" text-anchor="start" style="font-family: 'Open Sans', verdana, arial, sans-serif; font-size: 14.61px; fill: rgb(0, 0, 0); opacity: 1; font-weight: normal; white-space: pre;">level</text></g></g><rect class="cboutline" x="568" y="142" width="23" height="175" style="stroke: rgb(68, 68, 68); stroke-opacity: 1; fill: none; stroke-width: 1;"/></g><g class="g-xtitle" transform="translate(0,-14.179366438356055)"><text class="xtitle" x="324.5" y="510.8356164383561" text-anchor="middle" style="font-family: 'Open Sans', verdana, arial, sans-serif; font-size: 14.61px; fill: rgb(0, 0, 0); opacity: 1; font-weight: normal; white-space: pre;">eruptions</text></g><g class="g-ytitle" transform="translate(2.880859375,0)"><text class="ytitle" transform="rotate(-90,11.776255707762601,239.5)" x="11.776255707762601" y="239.5" text-anchor="middle" style="font-family: 'Open Sans', verdana, arial, sans-serif; font-size: 14.61px; fill: rgb(0, 0, 0); opacity: 1; font-weight: normal; white-space: pre;">waiting</text></g></g></svg>